<?xml version="1.0"?>
<svg xmlns="http://www.w3.org/2000/svg" id="Outline" viewBox="0 0 64 64" width="512px" height="512px" class=""><g><path d="M61,2H3A1,1,0,0,0,2,3V61a1,1,0,0,0,1,1H61a1,1,0,0,0,1-1V3A1,1,0,0,0,61,2ZM4,4H60V8H4ZM4,60V10H60V60Z" data-original="#000000" class="active-path" data-old_color="#6a1b9a" fill="#6a1b9a"/><path d="M6.71,5.29a1.047,1.047,0,0,0-1.42,0,1.155,1.155,0,0,0-.21.33A1,1,0,0,0,5,6a.838.838,0,0,0,.08.38,1.169,1.169,0,0,0,.21.33.99.99,0,0,0,1.09.21,1.169,1.169,0,0,0,.33-.21,1.169,1.169,0,0,0,.21-.33.943.943,0,0,0,0-.76A1.155,1.155,0,0,0,6.71,5.29Z" data-original="#000000" class="active-path" data-old_color="#6a1b9a" fill="#6a1b9a"/><path d="M9.92,5.62a.824.824,0,0,0-.09-.181L9.71,5.29a1,1,0,0,0-1.09-.21A.96.96,0,0,0,8,6a.99.99,0,0,0,1.38.92,1.169,1.169,0,0,0,.33-.21A.994.994,0,0,0,10,6a1.348,1.348,0,0,0-.021-.2A.6.6,0,0,0,9.92,5.62Z" data-original="#000000" class="active-path" data-old_color="#6a1b9a" fill="#6a1b9a"/><path d="M11.29,5.29A1.045,1.045,0,0,0,11,6a1,1,0,0,0,.08.38,1.169,1.169,0,0,0,.21.33,1.014,1.014,0,0,0,1.42,0,1.169,1.169,0,0,0,.21-.33A1,1,0,0,0,13,6a1.029,1.029,0,0,0-.29-.71A1.047,1.047,0,0,0,11.29,5.29Z" data-original="#000000" class="active-path" data-old_color="#6a1b9a" fill="#6a1b9a"/><rect x="44" y="12" width="10" height="2" data-original="#000000" class="active-path" data-old_color="#6a1b9a" fill="#6a1b9a"/><rect x="44" y="16" width="14" height="2" data-original="#000000" class="active-path" data-old_color="#6a1b9a" fill="#6a1b9a"/><rect x="44" y="20" width="14" height="2" data-original="#000000" class="active-path" data-old_color="#6a1b9a" fill="#6a1b9a"/><rect x="44" y="26" width="10" height="2" data-original="#000000" class="active-path" data-old_color="#6a1b9a" fill="#6a1b9a"/><rect x="44" y="30" width="14" height="2" data-original="#000000" class="active-path" data-old_color="#6a1b9a" fill="#6a1b9a"/><rect x="44" y="34" width="14" height="2" data-original="#000000" class="active-path" data-old_color="#6a1b9a" fill="#6a1b9a"/><rect x="44" y="38" width="14" height="2" data-original="#000000" class="active-path" data-old_color="#6a1b9a" fill="#6a1b9a"/><rect x="44" y="44" width="10" height="2" data-original="#000000" class="active-path" data-old_color="#6a1b9a" fill="#6a1b9a"/><rect x="44" y="48" width="14" height="2" data-original="#000000" class="active-path" data-old_color="#6a1b9a" fill="#6a1b9a"/><rect x="44" y="52" width="14" height="2" data-original="#000000" class="active-path" data-old_color="#6a1b9a" fill="#6a1b9a"/><rect x="44" y="56" width="14" height="2" data-original="#000000" class="active-path" data-old_color="#6a1b9a" fill="#6a1b9a"/><path d="M39,12H7a1,1,0,0,0-1,1V23a1,1,0,0,0,1,1H39a1,1,0,0,0,1-1V13A1,1,0,0,0,39,12ZM38,22H8V14H38Z" data-original="#000000" class="active-path" data-old_color="#6a1b9a" fill="#6a1b9a"/><rect x="6" y="26" width="16" height="2" data-original="#000000" class="active-path" data-old_color="#6a1b9a" fill="#6a1b9a"/><rect x="6" y="30" width="34" height="2" data-original="#000000" class="active-path" data-old_color="#6a1b9a" fill="#6a1b9a"/><rect x="6" y="34" width="26" height="2" data-original="#000000" class="active-path" data-old_color="#6a1b9a" fill="#6a1b9a"/><path d="M15,40H7a1,1,0,0,0-1,1v8a1,1,0,0,0,1,1h8a1,1,0,0,0,1-1V41A1,1,0,0,0,15,40Zm-1,8H8V42h6Z" data-original="#000000" class="active-path" data-old_color="#6a1b9a" fill="#6a1b9a"/><rect x="6" y="52" width="10" height="2" data-original="#000000" class="active-path" data-old_color="#6a1b9a" fill="#6a1b9a"/><path d="M27,40H19a1,1,0,0,0-1,1v8a1,1,0,0,0,1,1h8a1,1,0,0,0,1-1V41A1,1,0,0,0,27,40Zm-1,8H20V42h6Z" data-original="#000000" class="active-path" data-old_color="#6a1b9a" fill="#6a1b9a"/><path d="M39,40H31a1,1,0,0,0-1,1v8a1,1,0,0,0,1,1h8a1,1,0,0,0,1-1V41A1,1,0,0,0,39,40Zm-1,8H32V42h6Z" data-original="#000000" class="active-path" data-old_color="#6a1b9a" fill="#6a1b9a"/><rect x="18" y="52" width="10" height="2" data-original="#000000" class="active-path" data-old_color="#6a1b9a" fill="#6a1b9a"/><rect x="30" y="52" width="10" height="2" data-original="#000000" class="active-path" data-old_color="#6a1b9a" fill="#6a1b9a"/><rect x="6" y="56" width="10" height="2" data-original="#000000" class="active-path" data-old_color="#6a1b9a" fill="#6a1b9a"/><rect x="18" y="56" width="10" height="2" data-original="#000000" class="active-path" data-old_color="#6a1b9a" fill="#6a1b9a"/><rect x="30" y="56" width="10" height="2" data-original="#000000" class="active-path" data-old_color="#6a1b9a" fill="#6a1b9a"/></g> </svg>
